<?xml version="1.0" encoding="utf-8"?>
<!-- Generator: Adobe Illustrator 21.1.0, SVG Export Plug-In . SVG Version: 6.00 Build 0)  -->
<svg version="1.1" id="Layer_1" xmlns="http://www.w3.org/2000/svg" xmlns:xlink="http://www.w3.org/1999/xlink" x="0px" y="0px"
	 viewBox="0 0 166.8 34.4" style="enable-background:new 0 0 166.8 34.4;" xml:space="preserve">
<style type="text/css">
	.st0{fill:none;}
</style>
<rect x="-57.4" y="4.3" class="st0" width="281.8" height="25.9"/>
<path d="M6.5,7.7V10h0.1c0.5-1,1.2-1.7,2.1-2.1c0.8-0.4,1.8-0.7,2.9-0.7c1.6,0,2.8,0.4,3.7,1.3c0.9,0.9,1.3,2.3,1.3,4.2v14.4h-5
	V13.7c0-1-0.2-1.7-0.5-2.1c-0.3-0.4-0.9-0.6-1.6-0.6c-1.8,0-2.6,1.1-2.6,3.2v12.9h-5V7.7H6.5z"/>
<path d="M19.5,13c0.3-1.3,0.7-2.3,1.3-3.2c0.6-0.9,1.4-1.5,2.4-1.9c1-0.4,2.2-0.7,3.6-0.7c1.5,0,2.7,0.2,3.7,0.6
	c1,0.4,1.8,1.1,2.3,1.9c0.6,0.9,1,1.9,1.2,3.2c0.2,1.3,0.4,2.8,0.4,4.5c0,1.7-0.1,3.1-0.4,4.4c-0.3,1.3-0.7,2.3-1.3,3.2
	c-0.6,0.9-1.4,1.5-2.4,1.9c-1,0.4-2.2,0.6-3.6,0.6c-1.5,0-2.7-0.2-3.7-0.6c-1-0.4-1.8-1-2.3-1.9c-0.6-0.9-1-1.9-1.2-3.2
	c-0.2-1.3-0.4-2.8-0.4-4.4C19.1,15.7,19.2,14.3,19.5,13z M24.1,20.1c0,0.8,0.2,1.6,0.3,2.2c0.2,0.6,0.4,1.1,0.8,1.4
	c0.4,0.3,0.8,0.5,1.4,0.5c1,0,1.7-0.5,2.1-1.6c0.4-1.1,0.6-2.8,0.6-5.2s-0.2-4.2-0.6-5.2c-0.4-1.1-1.1-1.6-2.1-1.6
	c-0.6,0-1.1,0.2-1.4,0.5c-0.4,0.3-0.6,0.8-0.8,1.4c-0.2,0.6-0.3,1.3-0.3,2.2c0,0.8-0.1,1.8-0.1,2.7S24.1,19.3,24.1,20.1z"/>
<path d="M43.1,2.1v5.5H46v3.4h-2.9v10.5c0,0.8,0.1,1.3,0.3,1.6c0.2,0.3,0.7,0.5,1.4,0.5c0.2,0,0.4,0,0.6,0c0.2,0,0.4,0,0.5-0.1v3.5
	c-0.6,0-1.1,0-1.6,0.1s-1.1,0.1-1.6,0.1c-1,0-1.7-0.1-2.4-0.2c-0.6-0.1-1.1-0.4-1.4-0.8c-0.3-0.4-0.5-0.9-0.7-1.6
	c-0.1-0.6-0.2-1.5-0.2-2.4V11.1h-2.5V7.7h2.5V2.1H43.1z"/>
<path d="M52.4,7.7V10h0.1c0.5-1,1.2-1.7,2.1-2.1c0.8-0.4,1.8-0.7,2.9-0.7c1.6,0,2.8,0.4,3.7,1.3c0.9,0.9,1.3,2.3,1.3,4.2v14.4h-5
	V13.7c0-1-0.2-1.7-0.5-2.1C56.6,11.2,56,11,55.3,11c-1.8,0-2.6,1.1-2.6,3.2v12.9h-5V7.7H52.4z"/>
<path d="M65.4,13c0.3-1.3,0.7-2.3,1.3-3.2c0.6-0.9,1.4-1.5,2.4-1.9c1-0.4,2.2-0.7,3.6-0.7c1.5,0,2.7,0.2,3.7,0.6
	c1,0.4,1.8,1.1,2.3,1.9c0.6,0.9,1,1.9,1.2,3.2c0.2,1.3,0.4,2.8,0.4,4.5c0,1.7-0.1,3.1-0.4,4.4c-0.3,1.3-0.7,2.3-1.3,3.2
	c-0.6,0.9-1.4,1.5-2.4,1.9c-1,0.4-2.2,0.6-3.6,0.6c-1.5,0-2.7-0.2-3.7-0.6c-1-0.4-1.8-1-2.3-1.9c-0.6-0.9-1-1.9-1.2-3.2
	c-0.2-1.3-0.4-2.8-0.4-4.4C65,15.7,65.2,14.3,65.4,13z M70.1,20.1c0,0.8,0.2,1.6,0.3,2.2c0.2,0.6,0.4,1.1,0.8,1.4
	c0.4,0.3,0.8,0.5,1.4,0.5c1,0,1.7-0.5,2.1-1.6c0.4-1.1,0.6-2.8,0.6-5.2s-0.2-4.2-0.6-5.2c-0.4-1.1-1.1-1.6-2.1-1.6
	c-0.6,0-1.1,0.2-1.4,0.5c-0.4,0.3-0.6,0.8-0.8,1.4c-0.2,0.6-0.3,1.3-0.3,2.2c0,0.8-0.1,1.8-0.1,2.7S70,19.3,70.1,20.1z"/>
<path d="M89,2.1v5.5h2.9v3.4H89v10.5c0,0.8,0.1,1.3,0.3,1.6c0.2,0.3,0.7,0.5,1.4,0.5c0.2,0,0.4,0,0.6,0c0.2,0,0.4,0,0.5-0.1v3.5
	c-0.6,0-1.1,0-1.6,0.1c-0.5,0-1.1,0.1-1.6,0.1c-1,0-1.7-0.1-2.4-0.2c-0.6-0.1-1.1-0.4-1.4-0.8c-0.3-0.4-0.5-0.9-0.7-1.6
	C84.1,24,84,23.1,84,22.2V11.1h-2.5V7.7H84V2.1H89z"/>
<path d="M103.5,25c-0.6,0.9-1.2,1.5-1.9,1.9c-0.7,0.4-1.5,0.5-2.5,0.5c-2,0-3.5-0.8-4.5-2.3c-1-1.6-1.4-4.1-1.4-7.7
	c0-3.6,0.5-6.2,1.4-7.8c1-1.6,2.5-2.4,4.5-2.4c0.9,0,1.7,0.2,2.4,0.6c0.7,0.4,1.3,1,1.8,1.7h0.1V1.4h5v25.7h-4.8L103.5,25L103.5,25z
	 M98.6,22.1c0.3,1.1,1,1.6,2.1,1.6c1.1,0,1.8-0.5,2.1-1.6c0.3-1.1,0.5-2.7,0.5-4.8c0-2.1-0.2-3.7-0.5-4.8c-0.3-1.1-1-1.6-2.1-1.6
	c-1.1,0-1.8,0.5-2.1,1.6c-0.3,1.1-0.5,2.7-0.5,4.8C98.1,19.5,98.3,21.1,98.6,22.1z"/>
<path d="M116.8,1.1v4.2h-5V1.1H116.8z M116.8,7.7v19.4h-5V7.7H116.8z"/>
<path d="M127.2,11.7h-7.4v-4h13.2v3.8L125.3,23h7.7v4h-13.6v-3.8L127.2,11.7z"/>
<path d="M142.5,11.7h-7.4v-4h13.2v3.8L140.7,23h7.7v4h-13.6v-3.8L142.5,11.7z"/>
<path d="M152.2,29.7c0.9,0,1.6-0.2,2-0.7c0.4-0.5,0.6-1.1,0.7-1.9l-5.4-19.4h5.2l2.9,13.4h0.1l2.5-13.4h5l-4.7,18.1
	c-0.4,1.6-0.8,2.9-1.2,3.9c-0.4,1-0.9,1.8-1.4,2.3s-1.2,0.9-1.9,1.1c-0.8,0.2-1.7,0.3-2.9,0.3h-2v-3.7
	C151.4,29.7,151.8,29.7,152.2,29.7z"/>
</svg>
