<?xml version="1.0" encoding="utf-8"?>
<!-- Generator: Adobe Illustrator 21.1.0, SVG Export Plug-In . SVG Version: 6.00 Build 0)  -->
<svg version="1.1" id="Layer_1" xmlns="http://www.w3.org/2000/svg" xmlns:xlink="http://www.w3.org/1999/xlink" x="0px" y="0px"
	 viewBox="0 0 166.8 35.8" style="enable-background:new 0 0 166.8 35.8;" xml:space="preserve">
<g>
	<path d="M3.8,13.1V9.8h2.7v3.3H3.8z M3.8,28v-3.3h2.7V28H3.8z"/>
	<path d="M21.1,17.3v2.3h-9.4v-2.3H21.1z"/>
	<path d="M24.7,35.1c1.8-2.6,3.2-5.3,4.2-8.2c1-2.9,1.5-6,1.5-9.1c0-3.1-0.5-6.1-1.6-9c-1-2.9-2.4-5.6-4.1-8.1h1.9
		c1,1.4,1.9,2.8,2.7,4.1c0.8,1.3,1.4,2.7,2,4c0.5,1.4,0.9,2.8,1.2,4.3c0.3,1.5,0.4,3.1,0.4,4.9c0,1.7-0.1,3.3-0.4,4.8
		c-0.3,1.5-0.7,2.9-1.2,4.3c-0.5,1.4-1.2,2.7-2,4.1c-0.8,1.3-1.7,2.6-2.7,4H24.7z"/>
</g>
</svg>
